HIERARCHY
ROOT root
{
	OFFSET	0	13.1	24.9
	CHANNELS 6  Xposition Yposition Zposition Xrotation Yrotation Zrotation
	JOINT spine_1
	{
		OFFSET	0	9.99999	0
		CHANNELS 3  Xrotation Yrotation Zrotation
		JOINT spine_2
		{
			OFFSET	0	112	-10
			CHANNELS 3  Xrotation Yrotation Zrotation
			JOINT spine_3
			{
				OFFSET	0	206.5	19.3
				CHANNELS 3  Xrotation Yrotation Zrotation
				JOINT spine_4
				{
					OFFSET	0	110.4	14.6
					CHANNELS 3  Xrotation Yrotation Zrotation
					JOINT neck_1
					{
						OFFSET	0	71.8	-50.3
						CHANNELS 3  Xrotation Yrotation Zrotation
						JOINT neck_2
						{
							OFFSET	0	86.2	-25.8
							CHANNELS 3  Xrotation Yrotation Zrotation
							JOINT head_ee
							{
								OFFSET	0	179.8	-8.7
								CHANNELS 3  Xrotation Yrotation Zrotation
								End Site
								{
									OFFSET	1	0	0
								}
							}
						}
					}
					JOINT left_clavicle
					{
						OFFSET	-43.2	22.4	-70.8
						CHANNELS 3  Xrotation Yrotation Zrotation
						JOINT left_shoulder
						{
							OFFSET	-93.9	-5.79999	48.7
							CHANNELS 3  Xrotation Yrotation Zrotation
							JOINT left_elbow
							{
								OFFSET	-291.4	-30.8	15.2
								CHANNELS 3  Xrotation Yrotation Zrotation
								JOINT left_lowarm_twist
								{
									OFFSET	-110.7	-3.89999	13.6
									CHANNELS 3  Xrotation Yrotation Zrotation
									JOINT left_hand
									{
										OFFSET	-110.7	-3.89999	13.6
										CHANNELS 3  Xrotation Yrotation Zrotation
										JOINT left_ee
										{
											OFFSET	-80.8	-5.10001	12.1
											CHANNELS 3  Xrotation Yrotation Zrotation
											End Site
											{
												OFFSET	1	0	0
											}
										}
									}
								}
							}
						}
					}
					JOINT right_clavicle
					{
						OFFSET	43.2	22.4	-70.8
						CHANNELS 3  Xrotation Yrotation Zrotation
						JOINT right_shoulder
						{
							OFFSET	93.9	-5.79999	48.7
							CHANNELS 3  Xrotation Yrotation Zrotation
							JOINT right_elbow
							{
								OFFSET	291.4	-30.8	15.2
								CHANNELS 3  Xrotation Yrotation Zrotation
								JOINT right_lowarm_twist
								{
									OFFSET	110.7	-3.89999	13.6
									CHANNELS 3  Xrotation Yrotation Zrotation
									JOINT right_hand
									{
										OFFSET	110.7	-3.89999	13.6
										CHANNELS 3  Xrotation Yrotation Zrotation
										JOINT right_ee
										{
											OFFSET	80.8	-5.10001	12.1
											CHANNELS 3  Xrotation Yrotation Zrotation
											End Site
											{
												OFFSET	1	0	0
											}
										}
									}
								}
							}
						}
					}
				}
			}
		}
	}
	JOINT left_hip
	{
		OFFSET	-82.8	-127.5	0.300001
		CHANNELS 3  Xrotation Yrotation Zrotation
		JOINT left_knee
		{
			OFFSET	-28.2	-396.7	2.2
			CHANNELS 3  Xrotation Yrotation Zrotation
			JOINT left_ankle
			{
				OFFSET	-11.7	-411.3	35.4
				CHANNELS 3  Xrotation Yrotation Zrotation
				JOINT left_toes
				{
					OFFSET	0	-60	-88.6
					CHANNELS 3  Xrotation Yrotation Zrotation
					JOINT left_foot_ee
					{
						OFFSET	-22.5	-16.5	-42.2
						CHANNELS 3  Xrotation Yrotation Zrotation
						End Site
						{
							OFFSET	1	0	0
						}
					}
				}
			}
		}
	}
	JOINT right_hip
	{
		OFFSET	82.8	-127.5	0.300001
		CHANNELS 3  Xrotation Yrotation Zrotation
		JOINT right_knee
		{
			OFFSET	28.2	-396.7	2.2
			CHANNELS 3  Xrotation Yrotation Zrotation
			JOINT right_ankle
			{
				OFFSET	11.7	-411.3	35.4
				CHANNELS 3  Xrotation Yrotation Zrotation
				JOINT right_toes
				{
					OFFSET	0	-60	-88.6
					CHANNELS 3  Xrotation Yrotation Zrotation
					JOINT right_foot_ee
					{
						OFFSET	22.5	-16.5	-42.2
						CHANNELS 3  Xrotation Yrotation Zrotation
						End Site
						{
							OFFSET	1	0	0
						}
					}
				}
			}
		}
	}
}
MOTION
Frames: 12
Frame Time: 0.02
3185.99 749.827 -464.545 175.874 -57.5093 -179.269 0.364862 -0.309008 -2.13292 0.367376 -0.17269 -2.14825 0.374916 0.268775 -2.13836 0.368541 -0.0722307 -2.15397 -16.8236 3.44868 7.60956 -16.6649 2.33377 8.36977 -0.0 0.0 -0.0 10.7964 10.6622 20.272 -1.74331 -31.2479 50.3092 1.68496 -39.8477 0.610778 61.9749 -1.95287 -7.28707 1.18839 -11.3314 3.20037 -0.0 0.0 -0.0 7.37875 -9.58385 -14.0802 -28.7933 14.9687 -46.873 1.0786 28.1152 -0.270085 66.7851 2.41378 7.69691 1.34044 -7.94508 -12.0844 0.0 0.0 0.0 5.10047 -6.76021 -1.24308 6.71604 -0.334219 -0.97546 39.1849 11.9667 -4.8212 28.432 -0.0 -0.0 -0.0 0.0 -0.0 23.247 -18.2506 8.72052 -46.2945 0.914977 -6.85594 -5.76481 -13.9497 -0.857517 24.8299 -0.0 -0.0 0.0 0.0 0.0 
3193.58 746.632 -462.653 177.153 -55.7999 -177.38 0.687823 -0.189158 -2.09385 0.690261 -0.0555679 -2.10164 0.693012 0.362512 -2.0709 0.687028 0.0309785 -2.10214 -16.5598 3.96224 7.92463 -16.3911 3.10294 8.83733 -0.0 0.0 -0.0 10.5018 9.87783 19.8157 -0.113098 -31.0193 51.028 1.63092 -38.9321 0.576485 60.9708 -1.86112 -7.19676 1.11618 -11.0047 2.85406 -0.0 0.0 -0.0 7.71805 -8.89283 -14.732 -27.7687 15.4493 -47.365 0.997222 26.2886 -0.232879 66.7925 2.41451 7.6975 1.16888 -7.52223 -10.7875 0.0 0.0 0.0 3.58644 -7.26846 -0.99705 2.68004 -0.119606 -0.393805 41.4702 10.7521 -5.00962 29.8128 -0.0 -0.0 -0.0 0.0 -0.0 23.2226 -20.5739 8.1686 -36.9175 0.282394 -5.5619 -9.2045 -13.2319 -1.37508 22.7435 -0.0 -0.0 0.0 0.0 0.0 
3198.85 751.497 -459.504 176.277 -54.0439 -178.313 0.543725 -0.0902271 -1.97808 0.545901 0.0358008 -1.97981 0.545304 0.432911 -1.93225 0.540114 0.122378 -1.97635 -16.3079 3.95106 7.61458 -16.1533 3.22119 8.53345 -0.0 0.0 -0.0 10.2583 10.8521 19.2409 -0.15181 -30.0367 51.511 1.64401 -39.1562 0.584733 59.1047 -1.69487 -7.02472 1.19853 -11.6587 3.1269 -0.0 0.0 -0.0 7.89028 -8.38633 -15.0756 -26.8698 15.737 -47.1076 0.937679 24.9144 -0.207148 66.6899 2.40433 7.68918 1.02288 -6.15313 -9.29491 0.0 0.0 0.0 2.86881 -9.83771 -0.900105 -0.0455224 0.00187202 0.00673501 40.8386 10.8332 -4.9563 30.1107 -0.0 -0.0 -0.0 0.0 -0.0 22.8513 -21.9334 8.99151 -27.0654 -0.145235 -4.11248 -13.303 -11.9283 -1.99408 20.6127 -0.0 -0.0 0.0 0.0 0.0 
3209.3 752.409 -460.878 176.353 -52.8781 -178.811 0.667758 -0.0413372 -1.88511 0.669732 0.0786797 -1.88392 0.667629 0.451745 -1.83067 0.662986 0.157009 -1.87902 -15.5725 3.82593 8.32051 -15.382 2.4592 9.12904 -0.0 0.0 -0.0 10.1282 12.3089 18.8204 -0.33597 -29.0075 52.9041 1.77 -41.2408 0.666064 56.3924 -1.46348 -6.76534 1.14992 -12.4354 2.46162 -0.0 0.0 -0.0 8.14128 -7.02421 -15.6165 -26.1046 15.9704 -46.6744 0.865949 23.2174 -0.177894 67.4772 2.48288 7.75266 0.883246 -4.83781 -7.85376 0.0 0.0 0.0 3.70341 -13.0428 -0.0410924 -1.96034 0.0757379 0.291297 39.5154 10.9515 -4.84128 29.376 -0.0 -0.0 -0.0 0.0 -0.0 21.1922 -23.1586 8.70512 -21.1307 -0.280486 -3.21219 -12.0602 -10.6711 -1.80362 20.3755 -0.0 -0.0 0.0 0.0 0.0 
3219.77 763.437 -456.663 175.184 -52.5203 179.679 0.41562 -0.0778673 -1.71854 0.417263 0.0316295 -1.72002 0.416848 0.380347 -1.67775 0.412937 0.110646 -1.71675 -16.3693 3.32874 8.97982 -16.1432 1.25273 9.59957 -0.0 0.0 -0.0 10.05 13.4652 18.529 -1.05087 -27.8566 54.2255 1.84001 -42.3447 0.712725 53.9351 -1.26471 -6.5212 0.901061 -13.3508 0.388367 -0.0 0.0 -0.0 8.39464 -5.59671 -16.1721 -25.6703 16.1304 -47.2656 0.719747 19.6233 -0.124474 67.9156 2.527 7.78754 0.745064 -3.38487 -6.35665 0.0 0.0 0.0 4.40663 -17.4623 0.44786 -3.29325 0.121516 0.490733 38.8384 10.2359 -4.77478 28.0228 -0.0 -0.0 -0.0 0.0 -0.0 20.1599 -23.0247 8.22488 -16.9671 -0.319416 -2.57468 -11.672 -10.6215 -1.74473 21.046 -0.0 -0.0 0.0 0.0 0.0 
3234.7 771.908 -448.609 178.232 -52.9373 -177.573 0.285655 -0.114261 -1.6828 0.287231 -0.00696366 -1.68666 0.288031 0.33948 -1.65217 0.284229 0.0743291 -1.68504 -16.9074 2.86937 9.46018 -16.6554 0.188804 9.89924 -0.0 0.0 -0.0 10.0292 14.7621 18.3159 -1.67613 -26.9848 55.2028 1.89012 -43.1116 0.746722 52.1736 -1.12878 -6.34112 0.725491 -13.9937 -1.07067 -0.0 0.0 -0.0 8.6344 -4.26726 -16.7023 -25.1058 16.4751 -47.6926 0.698028 19.0745 -0.117278 68.4678 2.58295 7.831 0.688294 -2.60872 -5.66576 0.0 0.0 0.0 4.15198 -21.5657 1.75301 -5.44739 0.185646 0.815087 38.6584 9.63372 -4.75432 27.1303 -0.0 -0.0 -0.0 0.0 -0.0 19.4841 -22.9146 7.91319 -13.9448 -0.31862 -2.11103 -10.2916 -10.5024 -1.53566 21.9843 -0.0 -0.0 0.0 0.0 0.0 
3240.05 777.77 -445.329 178.276 -52.8392 -177.535 -0.0818499 -0.1426 -1.69797 -0.0802465 -0.0342809 -1.7036 -0.0784486 0.326919 -1.6723 -0.0823467 0.0587479 -1.70293 -17.2798 2.52701 9.71469 -17.015 -0.54686 10.0202 -0.0 0.0 -0.0 9.90466 15.8683 17.9434 -2.38039 -26.066 55.4839 1.92248 -43.597 0.768939 50.9502 -1.03767 -6.21364 0.597711 -14.4435 -2.12377 -0.0 0.0 -0.0 8.76348 -3.40346 -16.9966 -24.8751 16.6735 -48.1837 0.682667 18.6842 -0.112308 68.8325 2.62013 7.85941 0.650202 -2.10872 -5.20906 0.0 0.0 0.0 4.19536 -24.5265 2.01804 -6.95812 0.223321 1.04386 38.5329 9.21212 -4.74035 26.4775 -0.0 -0.0 -0.0 0.0 -0.0 18.8383 -22.7499 8.28565 -11.7082 -0.302288 -1.76827 -9.32847 -10.4268 -1.39009 22.6393 -0.0 -0.0 0.0 0.0 0.0 
3247.73 778.384 -440.497 175.595 -52.9003 179.65 -0.447536 -0.172372 -1.61533 -0.446087 -0.0692491 -1.62302 -0.443252 0.285863 -1.59915 -0.446819 0.0297537 -1.62422 -17.1986 2.34541 9.66669 -16.9371 -0.883555 9.90917 -0.0 0.0 -0.0 9.85843 16.6556 17.7508 -2.90985 -25.4322 55.6454 1.94581 -43.9421 0.785079 50.091 -0.975336 -6.12299 0.504162 -14.6994 -2.86277 -0.0 0.0 -0.0 8.69576 -2.75298 -16.8921 -24.8742 16.7342 -48.436 0.671956 18.411 -0.108901 69.089 2.64639 7.87926 0.623375 -1.77568 -4.89453 0.0 0.0 0.0 4.75596 -26.7169 3.14298 -8.01173 0.246018 1.20395 38.4005 8.83815 -4.72626 25.967 -0.0 -0.0 -0.0 0.0 -0.0 18.5115 -22.6584 7.77504 -10.305 -0.285217 -1.55364 -8.76695 -10.3276 -1.30529 23.0832 -0.0 -0.0 0.0 0.0 0.0 
3242.73 775.434 -436.328 176.611 -53.8291 -179.708 -0.300224 -0.191829 -1.60929 -0.298788 -0.0890505 -1.61823 -0.295443 0.26136 -1.59947 -0.299013 0.00550743 -1.62067 -17.1417 2.23126 9.62418 -16.883 -1.08917 9.828 -0.0 0.0 -0.0 9.91727 17.2141 17.7674 -3.21208 -25.0669 55.9218 1.96379 -44.2054 0.797588 49.4622 -0.93058 -6.05606 0.440758 -14.8775 -3.36554 -0.0 0.0 -0.0 8.87104 -2.115 -17.2672 -24.4033 17.0789 -48.8445 0.674073 18.465 -0.10957 69.2691 2.66488 7.89311 0.606541 -1.54392 -4.6876 0.0 0.0 0.0 5.66466 -28.2292 4.84883 -8.62274 0.25783 1.29697 38.4066 8.48171 -4.72503 25.6283 -0.0 -0.0 -0.0 0.0 -0.0 17.8636 -22.723 6.94813 -9.40708 -0.271537 -1.41654 -8.36576 -10.2577 -1.24478 23.396 -0.0 -0.0 0.0 0.0 0.0 
3248.96 773.218 -432.882 175.96 -54.5184 179.209 -0.255112 -0.196502 -1.55527 -0.253772 -0.0971511 -1.56461 -0.250351 0.240681 -1.54904 -0.253699 -0.00695104 -1.56761 -17.0864 2.1838 9.57629 -16.8306 -1.16314 9.76582 -0.0 0.0 -0.0 9.88618 17.5294 17.6675 -3.91221 -24.7504 55.7867 1.96082 -44.162 0.795513 49.045 -0.901296 -6.01139 0.385195 -14.826 -3.71699 -0.0 0.0 -0.0 9.00272 -1.31257 -17.564 -24.0219 17.4039 -48.6827 0.675721 18.5071 -0.110093 69.383 2.67659 7.90184 0.594675 -1.38981 -4.54539 0.0 0.0 0.0 5.18388 -29.3481 4.48602 -9.12508 0.266797 1.37353 38.5543 8.21149 -4.73717 25.3901 -0.0 -0.0 -0.0 0.0 -0.0 18.6144 -22.3563 7.67672 -8.53502 -0.256195 -1.2836 -8.22759 -9.98081 -1.22382 23.5 -0.0 -0.0 0.0 0.0 0.0 
3253.99 770.25 -430.364 175.673 -54.7964 178.628 -0.200048 -0.199685 -1.53561 -0.198742 -0.101577 -1.5452 -0.195268 0.230719 -1.53126 -0.19854 -0.0139796 -1.54847 -17.0118 2.15047 9.50784 -16.7597 -1.20162 9.68941 -0.0 0.0 -0.0 9.86631 17.5759 17.6272 -4.56852 -24.4991 55.7724 1.94657 -43.9533 0.785606 48.7503 -0.880803 -5.9797 0.344529 -14.7406 -3.95384 -0.0 0.0 -0.0 9.12777 -0.531073 -17.847 -23.6352 17.7797 -48.6029 0.684455 18.7297 -0.112881 69.46 2.68453 7.90774 0.592511 -1.28942 -4.48985 0.0 0.0 0.0 4.97027 -30.1233 4.33251 -9.44834 0.272212 1.42283 38.6535 7.9948 -4.7452 25.2225 -0.0 -0.0 -0.0 0.0 -0.0 19.1755 -22.0454 8.20903 -7.79678 -0.241627 -1.17126 -8.12984 -9.73489 -1.20899 23.5716 -0.0 -0.0 0.0 0.0 0.0 
3253.74 770.071 -426.287 176.594 -54.6989 179.772 -0.167766 -0.200928 -1.52099 -0.166485 -0.103748 -1.53069 -0.163001 0.224644 -1.51767 -0.166215 -0.0178343 -1.5341 -16.7091 2.1875 9.30136 -16.4674 -1.06534 9.50765 -0.0 0.0 -0.0 9.92184 17.2092 17.7759 -5.17431 -24.3434 55.7035 1.89945 -43.2524 0.75311 48.5441 -0.866565 -5.95747 0.300759 -14.52 -4.15383 -0.0 0.0 -0.0 9.2001 0.0215941 -18.0145 -23.3602 18.0614 -48.5262 0.709631 19.3681 -0.121098 69.4821 2.6868 7.90943 0.604343 -1.22215 -4.54131 0.0 0.0 0.0 4.87181 -30.6636 4.28284 -9.62261 0.275016 1.44943 38.9263 7.73157 -4.76864 25.1314 -0.0 -0.0 -0.0 0.0 -0.0 19.347 -21.8292 8.36403 -7.32344 -0.231524 -1.09932 -8.05819 -9.41851 -1.19809 23.6532 -0.0 -0.0 0.0 0.0 0.0 
